<?xml version="1.0" standalone="no"?>
<!DOCTYPE svg PUBLIC "-//W3C//DTD SVG 20010904//EN"
 "http://www.w3.org/TR/2001/REC-SVG-20010904/DTD/svg10.dtd">
<svg version="1.0" xmlns="http://www.w3.org/2000/svg"
 width="256.000000pt" height="256.000000pt" viewBox="0 0 256.000000 256.000000"
 preserveAspectRatio="xMidYMid meet">
<metadata>
Created by potrace 1.14, written by Peter Selinger 2001-2017
</metadata>
<g transform="translate(0.000000,256.000000) scale(0.100000,-0.100000)"
fill="#000000" stroke="none">
<path d="M1195 2548 c-56 -3 -128 -13 -161 -22 -33 -9 -69 -17 -80 -19 -21 -4
-24 -6 -131 -49 -228 -93 -434 -284 -556 -517 -46 -87 -97 -222 -103 -274 -2
-16 -6 -32 -8 -36 -24 -38 -25 -338 -2 -446 17 -77 40 -162 47 -169 5 -6 9
-16 9 -22 0 -7 5 -25 12 -41 6 -15 11 -31 10 -35 -1 -5 4 -8 10 -9 7 0 4 -4
-7 -9 -19 -8 -19 -9 1 -9 26 -1 37 -24 21 -41 -7 -7 -7 -10 -2 -8 6 3 15 0 22
-7 10 -10 9 -14 -2 -19 -8 -3 -15 -1 -15 4 0 6 -8 10 -17 10 -17 -1 -17 -1 -1
-11 10 -5 18 -14 18 -20 0 -5 -12 -2 -27 7 l-28 16 25 -20 c20 -17 22 -23 11
-35 -10 -12 -10 -19 1 -36 13 -22 28 -28 28 -12 0 5 -7 11 -15 15 -8 3 -15 10
-15 15 0 7 8 7 23 0 12 -6 23 -19 23 -30 0 -19 -7 -23 -36 -20 -12 2 -12 0 -2
-7 8 -5 13 -12 13 -16 -3 -24 0 -28 14 -16 9 7 18 10 21 8 3 -3 -7 -15 -22
-27 -15 -12 -25 -23 -22 -26 2 -3 14 4 25 15 17 15 22 16 27 5 3 -8 -3 -17
-16 -20 -14 -5 -17 -10 -9 -18 20 -20 11 -30 -9 -12 -18 17 -20 17 -14 2 3 -9
10 -17 16 -17 5 0 6 -5 3 -10 -4 -6 -3 -9 2 -8 16 4 53 -14 47 -23 -3 -5 -10
-7 -15 -4 -5 4 -9 1 -9 -5 0 -7 6 -10 14 -7 8 3 20 -2 28 -10 11 -15 10 -16
-7 -10 l-20 7 20 -15 c11 -9 19 -24 17 -33 -1 -9 7 -23 18 -30 13 -8 20 -8 20
-1 0 5 5 7 10 4 6 -4 7 -12 3 -18 -11 -18 -12 -37 -2 -37 5 0 9 5 9 11 0 5 5
7 12 3 6 -4 8 -3 4 4 -3 6 2 16 11 22 17 11 17 11 0 6 -12 -4 -16 -2 -11 6 5
7 3 8 -6 3 -9 -6 -11 -4 -5 5 6 9 4 11 -5 5 -9 -6 -11 -4 -5 5 6 9 4 11 -5 5
-9 -6 -11 -4 -5 5 5 8 4 11 -3 6 -7 -4 -10 1 -7 14 3 13 0 18 -7 14 -7 -5 -8
-2 -3 6 5 8 4 11 -3 6 -7 -4 -10 1 -7 14 2 11 -2 20 -8 20 -7 0 -4 5 6 11 24
14 34 4 17 -16 -8 -9 -8 -15 -2 -15 6 0 14 4 17 10 8 13 25 13 25 0 0 -6 -5
-9 -11 -8 -6 2 -13 -2 -16 -8 -2 -6 3 -11 12 -12 8 -1 22 -3 30 -4 8 -1 12 -5
10 -9 -3 -4 2 -10 11 -13 8 -3 13 -10 10 -15 -4 -5 -1 -12 4 -14 6 -3 5 -4 -2
-2 -7 1 -12 7 -11 13 1 5 -4 13 -13 16 -22 9 -13 -26 10 -40 11 -7 27 -10 35
-7 14 4 14 3 1 -5 -8 -6 -18 -8 -22 -6 -4 3 -13 2 -20 -2 -19 -12 24 -23 45
-12 16 8 17 7 8 -10 -6 -11 -7 -23 -3 -27 4 -5 1 -5 -6 -1 -7 4 -10 11 -7 15
8 13 -56 5 -68 -9 -10 -10 -8 -10 8 -2 21 11 50 -8 37 -24 -4 -5 0 -3 9 4 9 6
19 9 22 6 4 -4 11 5 16 20 6 14 16 26 23 26 9 0 9 -3 2 -8 -15 -10 -25 -42
-14 -42 6 0 10 7 10 15 0 8 4 15 9 15 12 0 8 -62 -4 -76 -5 -7 -14 -9 -19 -6
-5 3 -6 0 -2 -6 8 -13 76 32 76 51 0 5 -10 2 -22 -9 l-23 -19 19 23 c13 15 23
19 29 13 7 -7 6 -15 -2 -25 -7 -8 -10 -20 -6 -26 4 -6 1 -18 -7 -27 -8 -11 -8
-14 -1 -10 6 4 16 1 20 -8 7 -12 10 -12 21 5 8 14 9 21 0 26 -7 5 -8 3 -3 -6
5 -9 4 -11 -4 -6 -6 4 -9 12 -6 17 4 5 1 9 -5 9 -6 0 -8 5 -4 11 5 8 10 6 16
-5 5 -9 14 -13 20 -10 7 4 8 2 4 -4 -4 -7 -2 -12 3 -12 6 0 12 5 12 10 1 6 2
14 3 19 0 5 4 13 8 17 4 3 5 -4 2 -17 -3 -13 -6 -30 -6 -36 -1 -7 -4 -11 -6
-8 -7 7 -32 -15 -32 -29 0 -6 5 -3 11 7 8 14 14 16 25 6 7 -6 12 -15 9 -19 -3
-4 3 -7 13 -6 9 0 16 -4 15 -9 -1 -6 8 -12 19 -12 20 -2 20 -1 -2 14 -20 14
-21 17 -6 25 9 5 20 7 25 4 5 -3 14 1 21 9 7 8 17 15 23 15 6 0 3 -6 -8 -13
-17 -13 -17 -14 6 -22 13 -4 27 -8 31 -9 3 0 10 -4 14 -8 4 -4 13 -3 21 4 11
9 13 8 11 -2 -2 -7 3 -15 11 -18 8 -3 11 0 7 7 -5 8 -1 8 18 0 14 -7 23 -15
21 -20 -3 -4 0 -11 6 -15 8 -4 7 -9 -2 -16 -11 -8 -11 -9 1 -5 8 2 14 9 13 14
-1 5 14 10 33 11 31 1 39 -6 35 -30 0 -5 3 -8 9 -8 5 0 9 10 7 22 -1 17 3 23
21 24 22 1 22 1 6 -25 -9 -14 -11 -21 -4 -14 7 6 19 9 26 6 8 -3 14 0 14 7 0
6 -6 8 -12 4 -10 -5 -10 -4 -1 6 9 10 15 10 28 -4 13 -12 21 -14 36 -5 11 5
17 14 14 19 -3 5 -2 11 3 14 4 2 8 -6 8 -19 0 -13 -3 -22 -7 -19 -4 2 -13 -4
-20 -14 -12 -15 -12 -16 2 -5 12 10 18 10 29 0 10 -9 11 -9 6 1 -4 6 -2 12 4
12 6 0 8 6 4 13 -4 6 -4 9 1 5 4 -4 15 -2 24 5 14 11 14 10 2 -5 -8 -11 -9
-18 -3 -18 6 0 16 8 22 18 9 14 10 13 4 -8 -6 -22 -5 -23 9 -11 9 7 14 18 10
25 -4 6 2 4 13 -4 29 -22 30 -24 11 -17 -10 4 -16 3 -12 -2 3 -5 -4 -13 -16
-16 -11 -4 -18 -9 -16 -12 3 -2 19 3 36 11 34 18 55 21 46 6 -4 -6 -1 -9 6 -8
7 2 13 -2 14 -9 0 -6 3 -14 7 -18 5 -6 4 19 -2 35 -1 3 -2 9 -1 13 1 5 -4 5
-11 1 -7 -4 -10 -3 -5 1 4 5 16 9 27 10 14 1 17 -2 10 -11 -8 -9 -2 -11 22
-10 20 1 38 -4 46 -14 11 -13 11 -13 6 2 -6 16 17 20 32 5 4 -4 13 -2 21 5 19
16 28 2 12 -19 -12 -16 -12 -17 2 -6 9 7 19 10 23 6 4 -4 4 -1 1 8 -4 12 1 15
26 13 42 -3 59 4 59 25 0 14 -2 14 -10 1 -6 -10 -26 -15 -64 -15 -30 0 -52 3
-50 7 3 4 -5 5 -16 3 -11 -2 -20 1 -20 7 0 5 7 8 15 4 8 -3 15 -1 15 5 0 6 7
3 16 -6 14 -13 19 -14 25 -3 7 10 9 10 9 -1 0 -11 4 -9 14 5 8 10 18 16 22 11
4 -4 2 -7 -4 -7 -7 0 -12 -5 -12 -10 0 -13 21 -9 39 9 12 11 17 10 28 -5 10
-14 13 -15 13 -3 0 8 -5 20 -11 26 -8 8 -8 13 0 18 7 4 10 1 9 -7 -2 -7 3 -12
10 -10 6 1 12 -3 12 -9 0 -5 5 -7 12 -3 7 4 8 3 4 -5 -4 -6 -12 -9 -17 -6 -5
4 -9 1 -9 -4 0 -12 13 -14 24 -4 10 11 48 14 42 4 -3 -5 1 -11 9 -14 12 -5 12
-2 3 18 -9 19 -14 22 -25 14 -9 -9 -13 -8 -13 0 0 6 5 12 10 12 6 1 14 2 20 3
5 0 16 10 25 21 14 19 15 19 8 1 -4 -13 -3 -17 5 -12 6 3 13 2 17 -3 3 -6 -4
-8 -15 -6 -13 3 -18 0 -14 -7 5 -7 2 -8 -7 -4 -8 4 -6 1 3 -7 10 -8 14 -18 10
-22 -4 -5 -2 -5 5 -1 7 4 9 14 6 24 -6 14 -4 15 9 4 19 -15 56 -11 68 8 10 16
40 23 40 9 0 -5 5 -9 11 -9 8 0 7 6 -2 17 -12 15 -12 16 4 10 22 -8 60 10 52
24 -4 5 -1 9 4 9 6 0 11 -5 11 -12 0 -6 2 -9 5 -6 3 3 3 13 -1 22 -5 13 -9 14
-20 5 -8 -6 -11 -15 -8 -20 3 -5 1 -9 -5 -9 -5 0 -11 3 -14 8 -2 4 -2 1 -1 -5
2 -7 -1 -13 -6 -13 -6 0 -10 5 -10 12 0 6 -8 4 -19 -6 -16 -15 -19 -15 -24 -1
-4 8 -12 15 -18 15 -8 0 -8 -5 1 -16 11 -12 11 -15 -1 -12 -9 2 -13 -4 -11
-16 2 -11 -1 -15 -8 -11 -6 4 -9 13 -6 21 3 8 2 14 -3 14 -16 0 -21 -13 -10
-27 9 -10 7 -13 -6 -13 -10 0 -15 3 -12 6 3 4 2 16 -4 27 -8 14 -8 17 0 13 13
-9 53 12 46 24 -3 5 0 12 7 16 7 4 10 4 6 -1 -4 -4 0 -14 10 -21 22 -17 35
-18 25 -1 -9 15 -16 53 -7 45 3 -3 7 -14 9 -25 1 -10 9 -16 16 -14 8 2 20 4
27 4 18 1 15 14 -5 26 -10 6 -13 11 -6 11 6 0 14 -4 18 -9 8 -15 46 -9 41 6
-7 16 6 24 23 13 9 -5 22 0 37 13 26 22 34 48 9 27 -9 -7 -18 -10 -22 -6 -3 3
-1 6 6 6 7 0 9 5 6 10 -4 6 -11 7 -17 4 -7 -4 -8 -2 -4 5 6 9 11 9 22 0 8 -6
14 -8 14 -3 0 4 5 3 12 -4 16 -16 31 -15 21 0 -12 20 -12 38 -1 38 6 0 8 -7 5
-15 -4 -8 -2 -17 3 -20 6 -4 10 -1 10 4 0 6 8 11 18 11 15 1 15 2 -3 17 -16
13 -17 15 -2 10 10 -4 17 -1 17 6 0 8 4 6 10 -3 8 -13 10 -12 11 5 1 11 1 26
0 33 -2 12 18 17 48 12 12 -1 12 1 4 12 -9 10 -7 19 7 38 21 28 27 51 8 32 -7
-7 -16 -12 -22 -12 -5 0 5 11 24 25 19 14 28 25 20 25 -7 0 -21 -7 -31 -16
-17 -15 -18 -14 -14 14 3 25 1 30 -12 25 -11 -4 -9 1 6 16 12 12 19 26 16 31
-4 6 -1 10 5 10 8 0 9 -7 5 -18 -4 -9 -8 -30 -10 -47 -4 -25 -2 -27 8 -14 7 9
17 14 22 12 6 -2 11 6 11 17 0 22 -12 27 -19 8 -4 -10 -6 -10 -6 0 -1 7 6 15
14 18 8 4 15 10 15 16 0 5 -6 6 -12 2 -10 -6 -10 -4 0 7 6 7 12 20 12 28 -1
13 -2 13 -11 -1 -5 -10 -15 -18 -20 -18 -6 0 -3 7 5 16 9 8 13 20 10 26 -3 5
3 4 13 -3 18 -11 28 -39 13 -39 -3 0 -6 -9 -6 -20 0 -11 5 -19 11 -17 5 2 10
10 10 18 0 17 16 30 27 23 4 -3 8 -13 8 -22 0 -15 -2 -15 -11 -2 -8 12 -9 10
-4 -7 5 -19 3 -22 -12 -17 -15 5 -16 4 -3 -6 12 -9 11 -10 -7 -5 -14 4 -23 2
-23 -4 0 -6 3 -10 8 -10 28 5 35 -2 14 -17 -12 -8 -20 -20 -17 -25 3 -5 0 -7
-7 -6 -7 2 -9 2 -5 -1 4 -2 4 -9 -2 -15 -14 -17 -14 -29 -1 -37 9 -5 9 -9 1
-14 -6 -4 -11 -2 -11 3 0 6 -5 11 -11 11 -8 0 -7 -6 2 -17 12 -14 12 -16 0 -8
-9 5 -12 4 -8 -2 4 -6 -2 -22 -13 -34 -11 -13 -19 -18 -18 -10 2 7 -3 16 -10
18 -11 4 -12 1 -2 -17 6 -12 9 -24 6 -28 -3 -3 -6 1 -6 9 0 7 -8 2 -17 -11
-10 -14 -17 -28 -16 -32 2 -4 -5 -5 -15 -2 -13 4 -14 3 -4 -4 11 -7 10 -11 -5
-17 -10 -5 -27 -7 -38 -6 -17 3 -18 1 -5 -15 12 -15 12 -16 1 -9 -9 5 -12 4
-7 -3 4 -7 -1 -10 -14 -7 -11 2 -24 -3 -30 -13 -5 -10 -10 -12 -10 -4 0 17
-17 15 -23 -2 -4 -11 -1 -13 11 -9 14 5 15 4 6 -8 -16 -21 -26 -51 -14 -44 6
3 10 12 10 20 0 21 55 56 67 44 8 -8 17 -8 30 0 16 10 15 11 -7 5 -22 -6 -23
-5 -11 10 8 9 20 15 27 12 7 -3 16 0 20 6 4 7 3 8 -4 4 -7 -4 -12 -2 -12 5 0
6 8 9 19 6 15 -3 18 -1 14 12 -5 13 -3 14 8 4 7 -7 17 -13 23 -13 5 0 2 6 -8
13 -16 12 -16 14 3 31 22 20 30 9 9 -12 -7 -7 -9 -12 -4 -12 4 0 15 8 24 17
12 12 13 18 4 21 -19 6 -14 18 7 19 15 1 18 -3 14 -15 -3 -9 -3 -14 1 -10 4 3
8 13 10 21 1 8 10 26 19 40 10 15 13 27 7 27 -6 0 -8 5 -5 10 5 8 11 7 21 -1
10 -8 14 -8 14 0 0 6 -4 11 -10 11 -5 0 -10 5 -10 11 0 5 5 7 10 4 6 -3 10 -1
10 4 0 6 -4 11 -8 11 -5 0 -9 7 -9 15 0 8 6 15 14 15 9 0 12 8 9 25 -3 13 0
27 5 30 9 6 13 -7 10 -37 -1 -10 2 -18 8 -18 5 0 8 13 6 30 -2 16 0 32 6 35 5
4 9 -4 10 -17 0 -13 3 -17 6 -10 3 7 2 20 -1 28 -5 14 -9 14 -23 3 -15 -12
-16 -12 -10 4 4 10 7 21 7 23 0 3 6 2 13 -1 6 -4 3 1 -7 9 -17 14 -17 16 -4
16 22 0 32 18 19 34 -7 9 -7 16 1 24 9 9 9 12 0 12 -7 0 -17 11 -24 25 -6 13
-15 22 -19 19 -5 -3 0 -15 11 -26 22 -24 27 -47 7 -29 -8 6 -18 7 -22 3 -5 -4
-5 1 -2 11 4 10 3 16 -2 12 -24 -14 -17 15 9 44 16 17 29 34 29 37 -1 8 24 68
31 74 9 7 77 218 84 260 16 94 19 133 19 235 1 116 -8 211 -22 248 -5 12 -9
24 -9 27 -2 31 -16 80 -24 80 -5 0 -7 4 -3 9 7 13 -59 162 -101 229 -19 29
-34 56 -34 61 0 5 -3 11 -7 13 -5 2 -26 26 -48 53 -75 96 -208 213 -301 266
-116 66 -260 124 -338 134 -15 3 -37 7 -47 10 -39 13 -198 20 -294 13z m-895
-1747 c0 -5 7 -17 16 -25 10 -11 11 -16 3 -16 -6 0 0 -9 15 -21 14 -11 24 -24
21 -29 -3 -5 0 -10 7 -13 7 -2 4 -3 -8 -1 -13 2 -21 -2 -21 -11 0 -10 6 -13
18 -10 19 6 44 -27 35 -48 -2 -7 -5 -4 -5 6 -1 10 -6 15 -11 12 -6 -4 -8 -10
-5 -15 3 -4 -1 -11 -7 -13 -8 -4 -7 -6 5 -7 9 -2 23 -3 30 -4 6 -1 16 3 20 9
5 6 7 4 4 -5 -2 -8 -10 -14 -17 -12 -8 2 -10 -4 -6 -15 6 -17 5 -17 -8 0 -18
23 -29 22 -16 -3 14 -26 -18 -45 -52 -30 -24 11 -35 59 -14 62 6 0 16 2 23 2
13 1 42 35 43 49 0 15 -17 6 -29 -15 -9 -19 -11 -19 -6 -3 5 20 5 20 -10 1 -8
-11 -16 -15 -16 -8 -1 7 -3 17 -4 22 -1 6 -3 15 -4 22 -1 9 -4 9 -13 0 -7 -7
-17 -12 -22 -12 -6 0 -2 7 8 15 28 21 28 55 0 67 -19 9 -21 14 -12 34 11 23
38 34 38 15z m1960 -76 c0 4 9 0 20 -10 25 -23 25 -31 0 -38 -11 -3 -18 -1
-14 4 3 5 0 9 -5 9 -6 0 -11 -4 -11 -10 0 -5 -5 -10 -12 -10 -6 0 -8 3 -5 7 4
3 -1 15 -10 26 -13 15 -15 21 -5 24 6 3 9 10 5 16 -3 7 3 3 15 -7 12 -11 22
-15 22 -11z m-121 -108 c-2 -1 -13 -9 -24 -17 -19 -14 -19 -14 -6 3 7 9 18 17
24 17 6 0 8 -1 6 -3z m-1696 -32 c-3 -9 -8 -14 -10 -11 -3 3 -2 9 2 15 9 16
15 13 8 -4z m-23 -20 c0 -8 -4 -15 -10 -15 -5 0 -7 7 -4 15 4 8 8 15 10 15 2
0 4 -7 4 -15z m37 -17 c-3 -8 -6 -5 -6 6 -1 11 2 17 5 13 3 -3 4 -12 1 -19z
m1673 0 c10 -21 10 -21 -3 -6 -11 14 -16 15 -27 5 -12 -10 -12 -9 -1 6 17 22
18 22 31 -5z m120 18 c0 -2 -7 -7 -16 -10 -8 -3 -12 -2 -9 4 6 10 25 14 25 6z
m-25 -47 c-6 -29 -15 -37 -15 -12 0 17 8 33 16 33 2 0 1 -10 -1 -21z m-1871
-5 c5 -14 4 -15 -9 -4 -17 14 -19 20 -6 20 5 0 12 -7 15 -16z m132 -8 c2 -14
-20 -16 -33 -2 -4 4 -1 6 7 4 9 -2 14 3 12 12 -2 8 0 11 4 7 4 -4 9 -14 10
-21z m41 9 c0 -8 -4 -12 -9 -9 -5 3 -6 10 -3 15 9 13 12 11 12 -6z m1595 4 c2
-2 1 -3 -1 -2 -2 2 -9 -2 -16 -7 -8 -7 -12 -5 -12 4 0 12 22 16 29 5z m33 -19
c-3 -5 -11 -10 -16 -10 -6 0 -7 5 -4 10 3 6 11 10 16 10 6 0 7 -4 4 -10z
m-1780 -38 c-3 -3 1 -12 8 -20 10 -13 9 -14 -3 -10 -8 2 -15 11 -15 19 0 8 -5
21 -10 29 -8 13 -7 13 8 1 10 -8 15 -16 12 -19z m1712 9 c-10 -12 -9 -14 6 -8
10 4 16 3 12 -2 -3 -6 -14 -9 -25 -8 -13 1 -16 5 -10 13 6 6 8 13 5 16 -3 2 2
5 10 5 12 0 12 -3 2 -16z m-1577 -5 c0 -2 -7 -7 -16 -10 -8 -3 -12 -2 -9 4 6
10 25 14 25 6z m1535 -6 c3 -5 1 -10 -4 -10 -6 0 -11 5 -11 10 0 6 2 10 4 10
3 0 8 -4 11 -10z m157 -7 c-6 -3 -10 -9 -7 -13 3 -5 -4 -14 -16 -21 l-22 -11
23 31 c12 18 25 29 29 25 3 -4 0 -9 -7 -11z m-1692 -13 c0 -5 -5 -10 -11 -10
-5 0 -7 5 -4 10 3 6 8 10 11 10 2 0 4 -4 4 -10z m1585 -18 c-3 -3 -11 0 -18 7
-9 10 -8 11 6 5 10 -3 15 -9 12 -12z m-84 -19 c13 -16 12 -17 -3 -4 -17 13
-22 21 -14 21 2 0 10 -8 17 -17z m-1444 -18 c0 -8 -4 -12 -9 -9 -5 3 -6 10 -3
15 9 13 12 11 12 -6z m1563 1 c0 -2 -8 -10 -17 -17 -16 -13 -17 -12 -4 4 13
16 21 21 21 13z m-204 -62 c1 -9 0 -13 -4 -10 -3 4 -7 14 -8 22 -1 9 0 13 4
10 3 -4 7 -14 8 -22z m-1220 -66 c5 -8 2 -9 -9 -5 -9 3 -19 1 -23 -5 -4 -7 -3
-8 4 -4 7 4 12 2 12 -3 0 -12 -13 -15 -23 -5 -9 10 4 34 18 34 8 0 17 -5 21
-12z m118 -27 c4 -5 -3 -7 -14 -4 -23 6 -26 13 -6 13 8 0 17 -4 20 -9z m828
-18 c-6 -2 -9 -10 -6 -15 4 -7 2 -8 -5 -4 -13 9 -5 26 12 25 9 0 8 -2 -1 -6z
m-722 -17 c0 -8 -4 -17 -8 -20 -4 -2 -8 4 -8 15 0 10 4 19 8 19 4 0 8 -6 8
-14z m480 -10 c0 -2 -7 -7 -16 -10 -8 -3 -12 -2 -9 4 6 10 25 14 25 6z m-123
-21 c0 -8 -4 -12 -9 -9 -5 3 -6 10 -3 15 9 13 12 11 12 -6z m-167 -1 c0 -8
-19 -13 -24 -6 -3 5 1 9 9 9 8 0 15 -2 15 -3z m303 -7 c3 -8 -1 -14 -8 -14 -7
0 -11 6 -8 14 3 7 6 13 8 13 2 0 5 -6 8 -13z m-33 -3 c0 -8 -19 -13 -24 -6 -3
5 1 9 9 9 8 0 15 -2 15 -3z"/>
<path d="M275 790 c-5 -9 -4 -11 3 -6 7 4 12 2 12 -3 0 -6 -5 -11 -12 -11 -6
0 -3 -6 7 -14 10 -7 20 -29 22 -47 5 -54 6 -59 12 -54 10 11 9 35 -2 35 -7 1
-1 7 12 14 l24 13 -26 18 c-15 9 -25 21 -22 25 2 4 -2 15 -9 25 -10 14 -15 15
-21 5z m55 -70 c0 -5 -4 -10 -10 -10 -5 0 -10 5 -10 10 0 6 5 10 10 10 6 0 10
-4 10 -10z"/>
<path d="M305 601 c-3 -5 -1 -12 5 -16 6 -4 7 -11 4 -17 -4 -6 -2 -8 4 -4 5 3
13 0 16 -6 5 -11 7 -11 12 0 3 6 10 10 15 6 5 -3 4 6 -3 21 -8 18 -14 22 -20
13 -6 -10 -8 -10 -8 0 0 14 -16 16 -25 3z m38 -14 c4 3 7 1 7 -5 0 -17 -16
-15 -31 6 -12 15 -12 16 2 5 9 -7 19 -10 22 -6z"/>
<path d="M2225 721 c-7 -12 12 -24 43 -27 13 -2 23 -2 21 0 -37 25 -59 34 -64
27z"/>
<path d="M235 870 c-3 -5 -1 -10 4 -10 6 0 11 5 11 10 0 6 -2 10 -4 10 -3 0
-8 -4 -11 -10z"/>
<path d="M193 853 c0 -9 4 -10 14 -2 7 6 13 12 13 14 0 1 -6 2 -13 2 -8 0 -14
-6 -14 -14z"/>
<path d="M2306 837 c3 -10 9 -15 12 -12 3 3 0 11 -7 18 -10 9 -11 8 -5 -6z"/>
<path d="M2339 833 c-13 -16 -12 -17 4 -4 9 7 17 15 17 17 0 8 -8 3 -21 -13z"/>
<path d="M2359 818 c-5 -18 -6 -38 -1 -34 7 8 12 36 6 36 -2 0 -4 -1 -5 -2z"/>
<path d="M190 800 c0 -5 5 -10 11 -10 5 0 7 5 4 10 -3 6 -8 10 -11 10 -2 0 -4
-4 -4 -10z"/>
<path d="M2270 800 c0 -5 7 -13 16 -18 9 -5 15 -13 15 -18 0 -5 5 -9 12 -9 6
0 19 -5 27 -10 13 -8 13 -6 2 8 -8 9 -11 22 -7 29 4 7 0 5 -8 -4 -14 -18 -33
-25 -23 -10 3 5 -4 16 -15 25 -10 9 -19 13 -19 7z"/>
<path d="M2290 805 c0 -7 30 -13 34 -7 3 4 -4 9 -15 9 -10 1 -19 0 -19 -2z"/>
<path d="M155 781 c-3 -5 -2 -12 3 -15 5 -3 9 1 9 9 0 17 -3 19 -12 6z"/>
<path d="M195 769 c-4 -6 -5 -12 -2 -15 2 -3 7 2 10 11 7 17 1 20 -8 4z"/>
<path d="M2376 742 c-3 -5 1 -9 9 -9 8 0 12 4 9 9 -3 4 -7 8 -9 8 -2 0 -6 -4
-9 -8z"/>
<path d="M150 726 c0 -2 7 -7 16 -10 8 -3 12 -2 9 4 -6 10 -25 14 -25 6z"/>
<path d="M210 726 c0 -2 7 -7 16 -10 8 -3 12 -2 9 4 -6 10 -25 14 -25 6z"/>
<path d="M2315 720 c-3 -5 -1 -10 4 -10 6 0 11 5 11 10 0 6 -2 10 -4 10 -3 0
-8 -4 -11 -10z"/>
<path d="M194 690 c0 -9 6 -17 12 -17 7 0 10 7 6 15 -4 11 -1 13 9 7 8 -5 11
-4 6 0 -14 16 -33 13 -33 -5z"/>
<path d="M2347 679 c7 -7 15 -10 18 -7 3 3 -2 9 -12 12 -14 6 -15 5 -6 -5z"/>
<path d="M2315 669 c-4 -6 -5 -12 -2 -15 2 -3 7 2 10 11 7 17 1 20 -8 4z"/>
<path d="M237 653 c6 -16 5 -17 -13 -3 -17 14 -18 14 -6 -2 8 -9 11 -23 7 -30
-4 -7 1 -4 9 6 19 23 20 32 6 41 -6 4 -7 -1 -3 -12z"/>
<path d="M2346 622 c-3 -5 1 -9 9 -9 8 0 12 4 9 9 -3 4 -7 8 -9 8 -2 0 -6 -4
-9 -8z"/>
<path d="M216 562 c-2 -4 -1 -14 4 -22 7 -11 9 -9 7 8 -1 24 -3 26 -11 14z"/>
<path d="M2260 525 c6 -8 9 -19 5 -24 -3 -7 0 -8 9 -5 12 5 13 9 3 25 -6 10
-16 19 -21 19 -4 0 -3 -7 4 -15z"/>
<path d="M274 495 c3 -23 12 -26 13 -5 1 11 -2 20 -7 20 -4 0 -7 -7 -6 -15z"/>
<path d="M396 481 c-3 -5 2 -16 12 -24 16 -15 18 -15 18 3 0 20 -22 35 -30 21z"/>
<path d="M2270 469 c-22 -18 -22 -19 -3 -10 12 6 25 16 28 21 9 15 3 12 -25
-11z"/>
<path d="M2316 482 c-3 -5 1 -9 9 -9 8 0 12 4 9 9 -3 4 -7 8 -9 8 -2 0 -6 -4
-9 -8z"/>
<path d="M307 466 c-4 -10 1 -12 14 -9 23 6 24 9 5 16 -8 3 -17 0 -19 -7z"/>
<path d="M340 412 c9 -19 30 -23 30 -5 0 4 -3 3 -7 0 -3 -4 -12 1 -20 11 -13
15 -13 15 -3 -6z"/>
<path d="M2216 421 c-4 -5 3 -7 14 -4 23 6 26 13 6 13 -8 0 -17 -4 -20 -9z"/>
<path d="M2219 393 c-13 -16 -12 -17 4 -4 16 13 21 21 13 21 -2 0 -10 -8 -17
-17z"/>
<path d="M2176 362 c-3 -5 1 -9 9 -9 8 0 12 4 9 9 -3 4 -7 8 -9 8 -2 0 -6 -4
-9 -8z"/>
<path d="M436 335 c7 -18 6 -19 -12 -5 -18 14 -18 14 -5 -3 10 -12 17 -15 25
-7 7 7 6 14 -3 23 -10 10 -11 8 -5 -8z"/>
<path d="M481 323 c-15 -12 -15 -13 2 -7 13 5 16 2 11 -12 -5 -18 -5 -18 9 -2
8 10 16 15 19 12 3 -2 8 1 11 8 6 18 -30 18 -52 1z"/>
<path d="M386 322 c-3 -5 1 -9 9 -9 8 0 12 4 9 9 -3 4 -7 8 -9 8 -2 0 -6 -4
-9 -8z"/>
<path d="M2110 310 c-9 -6 -10 -10 -3 -10 6 0 15 5 18 10 8 12 4 12 -15 0z"/>
<path d="M560 280 c-8 -5 -12 -12 -9 -15 4 -3 12 1 19 10 14 17 11 19 -10 5z"/>
<path d="M495 260 c3 -5 8 -10 11 -10 2 0 4 5 4 10 0 6 -5 10 -11 10 -5 0 -7
-4 -4 -10z"/>
<path d="M575 220 c3 -5 8 -10 11 -10 2 0 4 5 4 10 0 6 -5 10 -11 10 -5 0 -7
-4 -4 -10z"/>
<path d="M721 218 c9 -7 19 -20 22 -28 4 -12 6 -11 6 3 1 19 16 23 26 6 4 -6
13 -8 21 -5 8 3 17 -1 20 -9 4 -8 16 -14 28 -14 17 1 17 2 3 6 -10 3 -14 10
-11 16 4 7 4 9 -1 5 -4 -4 -14 -3 -22 3 -7 6 -13 8 -13 5 0 -4 -9 -2 -21 4
-11 7 -33 14 -47 16 -24 5 -25 3 -11 -8z"/>
<path d="M1904 204 c-18 -14 -18 -15 4 -4 12 6 22 13 22 15 0 8 -5 6 -26 -11z"/>
<path d="M1010 159 c0 -5 5 -7 10 -4 6 3 10 8 10 11 0 2 -4 4 -10 4 -5 0 -10
-5 -10 -11z"/>
<path d="M1830 159 c0 -5 5 -7 10 -4 6 3 10 8 10 11 0 2 -4 4 -10 4 -5 0 -10
-5 -10 -11z"/>
<path d="M950 150 c-8 -5 -10 -10 -5 -10 6 0 17 5 25 10 8 5 11 10 5 10 -5 0
-17 -5 -25 -10z"/>
<path d="M1755 149 c-4 -6 -5 -12 -2 -15 2 -3 7 2 10 11 7 17 1 20 -8 4z"/>
<path d="M866 138 c3 -5 10 -6 15 -3 13 9 11 12 -6 12 -8 0 -12 -4 -9 -9z"/>
<path d="M1610 131 c0 -7 -5 -9 -12 -5 -7 5 -8 3 -3 -5 5 -9 10 -10 18 -2 6 6
8 14 4 18 -4 3 -7 1 -7 -6z"/>
<path d="M926 118 c3 -5 10 -6 15 -3 13 9 11 12 -6 12 -8 0 -12 -4 -9 -9z"/>
<path d="M1175 120 c3 -5 8 -10 11 -10 2 0 4 5 4 10 0 6 -5 10 -11 10 -5 0 -7
-4 -4 -10z"/>
<path d="M1676 118 c3 -5 10 -6 15 -3 13 9 11 12 -6 12 -8 0 -12 -4 -9 -9z"/>
<path d="M1350 116 c0 -2 8 -10 18 -17 15 -13 16 -12 3 4 -13 16 -21 21 -21
13z"/>
<path d="M1280 100 c-9 -6 -10 -10 -3 -10 6 0 15 5 18 10 8 12 4 12 -15 0z"/>
</g>
</svg>
